<?xml version="1.0" encoding="UTF-8" standalone="no"?>
<!DOCTYPE svg PUBLIC "-//W3C//DTD SVG 1.1//EN" "http://www.w3.org/Graphics/SVG/1.1/DTD/svg11.dtd">
<svg width="100%" height="100%" viewBox="0 0 433 308" version="1.1" xmlns="http://www.w3.org/2000/svg" xmlns:xlink="http://www.w3.org/1999/xlink" xml:space="preserve" xmlns:serif="http://www.serif.com/" style="fill-rule:evenodd;clip-rule:evenodd;stroke-linecap:round;stroke-miterlimit:1;">
    <g transform="matrix(1,0,0,1,-311,-384)">
        <g transform="matrix(0.783638,0,0,0.449786,-8.52778,124.499)">
            <rect id="logo-light" x="407.793" y="577.663" width="552.355" height="683.684" style="fill:none;"/>
            <g id="logo-light1" serif:id="logo-light">
                <g transform="matrix(1.2761,0,0,2.22328,165.132,485.659)">
                    <g transform="matrix(83.3333,0,0,83.3333,533.378,192.785)">
                    </g>
                    <text x="264.628px" y="192.785px" style="font-family:'Poppins-ExtraBold', 'Poppins';font-weight:800;font-size:83.333px;fill:rgb(255,253,255);">ARCHI</text>
                </g>
                <g transform="matrix(1.2761,0,0,2.22328,165.043,654.559)">
                    <g transform="matrix(62.5,0,0,62.5,489.253,177.368)">
                    </g>
                    <text x="264.628px" y="177.368px" style="font-family:'Poppins-SemiBold', 'Poppins';font-weight:600;font-size:62.5px;fill:rgb(255,253,255);">nigeria</text>
                </g>
                <g transform="matrix(1.41516,0,0,2.22856,-222.331,612.917)">
                    <path d="M786.078,54.299C786.078,44.265 778.714,36.118 769.645,36.118L494.387,36.118C485.317,36.118 477.954,44.265 477.954,54.299L477.954,223.354C477.954,233.388 485.317,241.534 494.387,241.534L769.645,241.534C778.714,241.534 786.078,233.388 786.078,223.354L786.078,54.299Z" style="fill:none;stroke:rgb(255,253,255);stroke-width:7.88px;"/>
                </g>
            </g>
        </g>
    </g>
</svg>
