<?xml version="1.0" encoding="UTF-8" standalone="no"?><!DOCTYPE svg PUBLIC "-//W3C//DTD SVG 1.1//EN" "http://www.w3.org/Graphics/SVG/1.1/DTD/svg11.dtd"><svg width="100%" height="100%" viewBox="0 0 433 308" version="1.1" xmlns="http://www.w3.org/2000/svg" xmlns:xlink="http://www.w3.org/1999/xlink" xml:space="preserve" xmlns:serif="http://www.serif.com/" style="fill-rule:evenodd;clip-rule:evenodd;stroke-linecap:round;stroke-miterlimit:1;"><rect id="logo-dark" x="0" y="0" width="432.847" height="307.512" style="fill:none;"/><g id="logo-dark1" serif:id="logo-dark"><g><path d="M116.303,136.894l-20.834,-0l-3.166,9.583l-17.167,0l21.417,-58.75l18.833,0l21.333,58.75l-17.25,0l-3.166,-9.583Zm-4.084,-12.5l-6.333,-19l-6.25,19l12.583,-0Z" style="fill-rule:nonzero;"/><path d="M171.803,146.477l-11.667,-21.666l-1.75,-0l-0,21.666l-16.333,0l-0,-58.75l25.75,0c4.722,0 8.722,0.82 12,2.459c3.277,1.639 5.75,3.889 7.416,6.75c1.667,2.861 2.5,6.069 2.5,9.625c0,4 -1.097,7.514 -3.291,10.541c-2.195,3.028 -5.403,5.181 -9.625,6.459l13.25,22.916l-18.25,0Zm-13.417,-32.833l8.083,-0c2.223,-0 3.889,-0.528 5,-1.583c1.111,-1.056 1.667,-2.584 1.667,-4.584c-0,-1.889 -0.569,-3.375 -1.708,-4.458c-1.139,-1.083 -2.792,-1.625 -4.959,-1.625l-8.083,-0l-0,12.25Z" style="fill-rule:nonzero;"/><path d="M195.136,116.977c-0,-5.777 1.208,-10.93 3.625,-15.458c2.417,-4.528 5.847,-8.056 10.292,-10.583c4.444,-2.528 9.555,-3.792 15.333,-3.792c7.333,-0 13.5,1.958 18.5,5.875c5,3.917 8.222,9.236 9.667,15.958l-17.584,0c-1.055,-2.222 -2.514,-3.916 -4.375,-5.083c-1.861,-1.167 -4.014,-1.75 -6.458,-1.75c-3.778,-0 -6.792,1.347 -9.042,4.042c-2.25,2.694 -3.375,6.291 -3.375,10.791c0,4.556 1.125,8.181 3.375,10.875c2.25,2.695 5.264,4.042 9.042,4.042c2.444,-0 4.597,-0.583 6.458,-1.75c1.861,-1.167 3.32,-2.861 4.375,-5.083l17.584,-0c-1.445,6.722 -4.667,12.041 -9.667,15.958c-5,3.917 -11.167,5.875 -18.5,5.875c-5.778,-0 -10.889,-1.264 -15.333,-3.792c-4.445,-2.527 -7.875,-6.055 -10.292,-10.583c-2.417,-4.528 -3.625,-9.708 -3.625,-15.542Z" style="fill-rule:nonzero;"/><path d="M312.886,87.727l-0,58.75l-16.333,0l-0,-23.583l-19.917,-0l-0,23.583l-16.333,0l-0,-58.75l16.333,0l-0,22.084l19.917,-0l-0,-22.084l16.333,0Z" style="fill-rule:nonzero;"/><rect x="322.219" y="87.727" width="16.333" height="58.75" style="fill-rule:nonzero;"/></g><g><path d="M97.899,171.904c4.125,0 7.459,1.302 10,3.906c2.542,2.605 3.813,6.24 3.813,10.907l-0,20.312l-8.75,0l-0,-19.125c-0,-2.75 -0.688,-4.864 -2.063,-6.344c-1.375,-1.479 -3.25,-2.218 -5.625,-2.218c-2.416,-0 -4.323,0.739 -5.718,2.218c-1.396,1.48 -2.094,3.594 -2.094,6.344l-0,19.125l-8.75,0l-0,-34.625l8.75,0l-0,4.313c1.166,-1.5 2.656,-2.677 4.469,-3.532c1.812,-0.854 3.802,-1.281 5.968,-1.281Z" style="fill-rule:nonzero;"/><path d="M124.462,168.279c-1.542,0 -2.823,-0.489 -3.844,-1.469c-1.021,-0.979 -1.531,-2.197 -1.531,-3.656c-0,-1.458 0.51,-2.677 1.531,-3.656c1.021,-0.979 2.302,-1.469 3.844,-1.469c1.541,0 2.823,0.49 3.844,1.469c1.02,0.979 1.531,2.198 1.531,3.656c-0,1.459 -0.511,2.677 -1.531,3.656c-1.021,0.98 -2.303,1.469 -3.844,1.469Zm4.312,4.125l0,34.625l-8.75,0l0,-34.625l8.75,0Z" style="fill-rule:nonzero;"/><path d="M150.962,171.842c2.583,-0 4.854,0.51 6.812,1.531c1.959,1.021 3.5,2.344 4.625,3.969l0,-4.938l8.813,0l-0,34.875c-0,3.209 -0.646,6.073 -1.938,8.594c-1.291,2.521 -3.229,4.521 -5.812,6c-2.584,1.479 -5.709,2.219 -9.375,2.219c-4.917,-0 -8.948,-1.146 -12.094,-3.438c-3.146,-2.291 -4.927,-5.416 -5.344,-9.375l8.688,0c0.458,1.584 1.448,2.844 2.969,3.781c1.52,0.938 3.364,1.407 5.531,1.407c2.541,-0 4.604,-0.761 6.187,-2.282c1.584,-1.52 2.375,-3.822 2.375,-6.906l0,-5.375c-1.125,1.625 -2.677,2.979 -4.656,4.063c-1.979,1.083 -4.24,1.625 -6.781,1.625c-2.917,-0 -5.584,-0.75 -8,-2.25c-2.417,-1.5 -4.323,-3.615 -5.719,-6.344c-1.396,-2.729 -2.094,-5.865 -2.094,-9.406c0,-3.5 0.698,-6.604 2.094,-9.313c1.396,-2.708 3.292,-4.791 5.688,-6.25c2.395,-1.458 5.072,-2.187 8.031,-2.187Zm11.437,17.875c0,-2.125 -0.416,-3.948 -1.25,-5.469c-0.833,-1.521 -1.958,-2.688 -3.375,-3.5c-1.416,-0.813 -2.937,-1.219 -4.562,-1.219c-1.625,0 -3.125,0.396 -4.5,1.188c-1.375,0.791 -2.49,1.948 -3.344,3.468c-0.854,1.521 -1.281,3.323 -1.281,5.407c-0,2.083 0.427,3.906 1.281,5.468c0.854,1.563 1.979,2.761 3.375,3.594c1.396,0.834 2.885,1.25 4.469,1.25c1.625,0 3.146,-0.406 4.562,-1.219c1.417,-0.812 2.542,-1.979 3.375,-3.5c0.834,-1.52 1.25,-3.343 1.25,-5.468Z" style="fill-rule:nonzero;"/><path d="M211.962,188.967c-0,1.25 -0.084,2.375 -0.25,3.375l-25.313,-0c0.209,2.5 1.084,4.458 2.625,5.875c1.542,1.416 3.438,2.125 5.688,2.125c3.25,-0 5.562,-1.396 6.937,-4.188l9.438,0c-1,3.334 -2.917,6.073 -5.75,8.219c-2.834,2.146 -6.313,3.219 -10.438,3.219c-3.333,-0 -6.323,-0.74 -8.968,-2.219c-2.646,-1.479 -4.709,-3.573 -6.188,-6.281c-1.479,-2.709 -2.219,-5.834 -2.219,-9.375c0,-3.584 0.729,-6.729 2.188,-9.438c1.458,-2.708 3.5,-4.791 6.125,-6.25c2.625,-1.458 5.646,-2.187 9.062,-2.187c3.292,-0 6.24,0.708 8.844,2.125c2.604,1.416 4.625,3.427 6.063,6.031c1.437,2.604 2.156,5.594 2.156,8.969Zm-9.063,-2.5c-0.041,-2.25 -0.854,-4.052 -2.437,-5.407c-1.584,-1.354 -3.521,-2.031 -5.813,-2.031c-2.166,0 -3.989,0.656 -5.468,1.969c-1.48,1.312 -2.386,3.135 -2.719,5.469l16.437,-0Z" style="fill-rule:nonzero;"/><path d="M227.087,177.779c1.125,-1.833 2.594,-3.271 4.406,-4.312c1.813,-1.042 3.885,-1.563 6.219,-1.563l-0,9.188l-2.313,-0c-2.75,-0 -4.823,0.646 -6.218,1.937c-1.396,1.292 -2.094,3.542 -2.094,6.75l-0,17.25l-8.75,0l-0,-34.625l8.75,0l-0,5.375Z" style="fill-rule:nonzero;"/><path d="M248.024,168.279c-1.541,0 -2.823,-0.489 -3.843,-1.469c-1.021,-0.979 -1.532,-2.197 -1.532,-3.656c0,-1.458 0.511,-2.677 1.532,-3.656c1.02,-0.979 2.302,-1.469 3.843,-1.469c1.542,0 2.823,0.49 3.844,1.469c1.021,0.979 1.531,2.198 1.531,3.656c0,1.459 -0.51,2.677 -1.531,3.656c-1.021,0.98 -2.302,1.469 -3.844,1.469Zm4.313,4.125l-0,34.625l-8.75,0l-0,-34.625l8.75,0Z" style="fill-rule:nonzero;"/><path d="M258.712,189.592c-0,-3.5 0.698,-6.604 2.094,-9.313c1.395,-2.708 3.291,-4.791 5.687,-6.25c2.396,-1.458 5.073,-2.187 8.031,-2.187c2.584,-0 4.844,0.521 6.782,1.562c1.937,1.042 3.489,2.354 4.656,3.938l-0,-4.938l8.812,0l0,34.625l-8.812,0l-0,-5.062c-1.125,1.625 -2.677,2.968 -4.656,4.031c-1.98,1.062 -4.261,1.594 -6.844,1.594c-2.917,-0 -5.573,-0.75 -7.969,-2.25c-2.396,-1.5 -4.292,-3.615 -5.687,-6.344c-1.396,-2.729 -2.094,-5.865 -2.094,-9.406Zm27.25,0.125c-0,-2.125 -0.417,-3.948 -1.25,-5.469c-0.834,-1.521 -1.959,-2.688 -3.375,-3.5c-1.417,-0.813 -2.938,-1.219 -4.563,-1.219c-1.625,0 -3.125,0.396 -4.5,1.188c-1.375,0.791 -2.489,1.948 -3.343,3.468c-0.855,1.521 -1.282,3.323 -1.282,5.407c0,2.083 0.427,3.906 1.282,5.468c0.854,1.563 1.979,2.761 3.375,3.594c1.395,0.834 2.885,1.25 4.468,1.25c1.625,0 3.146,-0.406 4.563,-1.219c1.416,-0.812 2.541,-1.979 3.375,-3.5c0.833,-1.52 1.25,-3.343 1.25,-5.468Z" style="fill-rule:nonzero;"/></g><path d="M377.948,65.36c0,-10.059 -8.166,-18.225 -18.224,-18.225l-305.252,0c-10.059,0 -18.225,8.166 -18.225,18.225l0,169.456c0,10.058 8.166,18.224 18.225,18.224l305.252,-0c10.058,-0 18.224,-8.166 18.224,-18.224l0,-169.456Z" style="fill:none;stroke:#000;stroke-width:8.33px;"/></g></svg>